<svg id="visual" viewBox="0 0 1920 1080" width="1920" height="1080" xmlns="http://www.w3.org/2000/svg" xmlns:xlink="http://www.w3.org/1999/xlink" version="1.1"><rect x="0" y="0" width="1920" height="1080" fill="#FAF9F6"></rect><path d="M0 793L45.7 794.5C91.3 796 182.7 799 274.2 797.3C365.7 795.7 457.3 789.3 548.8 779.8C640.3 770.3 731.7 757.7 823 752.7C914.3 747.7 1005.7 750.3 1097 764.8C1188.3 779.3 1279.7 805.7 1371.2 807.8C1462.7 810 1554.3 788 1645.8 770.2C1737.3 752.3 1828.7 738.7 1874.3 731.8L1920 725L1920 1081L1874.3 1081C1828.7 1081 1737.3 1081 1645.8 1081C1554.3 1081 1462.7 1081 1371.2 1081C1279.7 1081 1188.3 1081 1097 1081C1005.7 1081 914.3 1081 823 1081C731.7 1081 640.3 1081 548.8 1081C457.3 1081 365.7 1081 274.2 1081C182.7 1081 91.3 1081 45.7 1081L0 1081Z" fill="#c1170b"></path><path d="M0 886L45.7 878.3C91.3 870.7 182.7 855.3 274.2 849.5C365.7 843.7 457.3 847.3 548.8 839.2C640.3 831 731.7 811 823 809.3C914.3 807.7 1005.7 824.3 1097 829.2C1188.3 834 1279.7 827 1371.2 831.2C1462.7 835.3 1554.3 850.7 1645.8 853.8C1737.3 857 1828.7 848 1874.3 843.5L1920 839L1920 1081L1874.3 1081C1828.7 1081 1737.3 1081 1645.8 1081C1554.3 1081 1462.7 1081 1371.2 1081C1279.7 1081 1188.3 1081 1097 1081C1005.7 1081 914.3 1081 823 1081C731.7 1081 640.3 1081 548.8 1081C457.3 1081 365.7 1081 274.2 1081C182.7 1081 91.3 1081 45.7 1081L0 1081Z" fill="#db6046"></path><path d="M0 870L45.7 882.5C91.3 895 182.7 920 274.2 919.7C365.7 919.3 457.3 893.7 548.8 888C640.3 882.3 731.7 896.7 823 900.2C914.3 903.7 1005.7 896.3 1097 902.3C1188.3 908.3 1279.7 927.7 1371.2 930.5C1462.7 933.3 1554.3 919.7 1645.8 916C1737.3 912.3 1828.7 918.7 1874.3 921.8L1920 925L1920 1081L1874.3 1081C1828.7 1081 1737.3 1081 1645.8 1081C1554.3 1081 1462.7 1081 1371.2 1081C1279.7 1081 1188.3 1081 1097 1081C1005.7 1081 914.3 1081 823 1081C731.7 1081 640.3 1081 548.8 1081C457.3 1081 365.7 1081 274.2 1081C182.7 1081 91.3 1081 45.7 1081L0 1081Z" fill="#ef9680"></path><path d="M0 972L45.7 968.3C91.3 964.7 182.7 957.3 274.2 948.2C365.7 939 457.3 928 548.8 926.3C640.3 924.7 731.7 932.3 823 942.7C914.3 953 1005.7 966 1097 971.7C1188.3 977.3 1279.7 975.7 1371.2 972C1462.7 968.3 1554.3 962.7 1645.8 960.8C1737.3 959 1828.7 961 1874.3 962L1920 963L1920 1081L1874.3 1081C1828.7 1081 1737.3 1081 1645.8 1081C1554.3 1081 1462.7 1081 1371.2 1081C1279.7 1081 1188.3 1081 1097 1081C1005.7 1081 914.3 1081 823 1081C731.7 1081 640.3 1081 548.8 1081C457.3 1081 365.7 1081 274.2 1081C182.7 1081 91.3 1081 45.7 1081L0 1081Z" fill="#fbcabe"></path><path d="M0 992L45.7 997.2C91.3 1002.3 182.7 1012.7 274.2 1014.2C365.7 1015.7 457.3 1008.3 548.8 1003.3C640.3 998.3 731.7 995.7 823 999.5C914.3 1003.3 1005.7 1013.7 1097 1021.3C1188.3 1029 1279.7 1034 1371.2 1035.2C1462.7 1036.3 1554.3 1033.7 1645.8 1031.7C1737.3 1029.7 1828.7 1028.3 1874.3 1027.7L1920 1027L1920 1081L1874.3 1081C1828.7 1081 1737.3 1081 1645.8 1081C1554.3 1081 1462.7 1081 1371.2 1081C1279.7 1081 1188.3 1081 1097 1081C1005.7 1081 914.3 1081 823 1081C731.7 1081 640.3 1081 548.8 1081C457.3 1081 365.7 1081 274.2 1081C182.7 1081 91.3 1081 45.7 1081L0 1081Z" fill="#ffffff"></path></svg>